<svg width="10" height="10" viewBox="0 0 10 10" fill="none" xmlns="http://www.w3.org/2000/svg">
<path d="M4.92604 7.63297C5.00664 7.63297 5.08544 7.60904 5.15246 7.56419C5.21948 7.51934 5.27171 7.4556 5.30256 7.38103C5.33341 7.30645 5.34148 7.22439 5.32575 7.14522C5.31003 7.06605 5.27121 6.99333 5.21421 6.93625C5.15722 6.87917 5.0846 6.8403 5.00554 6.82455C4.92649 6.80881 4.84455 6.81689 4.77008 6.84778C4.69561 6.87867 4.63196 6.93098 4.58718 6.9981C4.54239 7.06521 4.51849 7.14412 4.51849 7.22484C4.51849 7.33309 4.56143 7.43689 4.63786 7.51343C4.71429 7.58997 4.81795 7.63297 4.92604 7.63297ZM6.96376 7.63297C7.04437 7.63297 7.12316 7.60904 7.19018 7.56419C7.2572 7.51934 7.30944 7.4556 7.34028 7.38103C7.37113 7.30645 7.3792 7.22439 7.36348 7.14522C7.34775 7.06605 7.30894 6.99333 7.25194 6.93625C7.19494 6.87917 7.12233 6.8403 7.04327 6.82455C6.96421 6.80881 6.88227 6.81689 6.8078 6.84778C6.73333 6.87867 6.66968 6.93098 6.6249 6.9981C6.58012 7.06521 6.55622 7.14412 6.55622 7.22484C6.55622 7.33309 6.59915 7.43689 6.67558 7.51343C6.75201 7.58997 6.85567 7.63297 6.96376 7.63297ZM6.96376 6.00045C7.04437 6.00045 7.12316 5.97651 7.19018 5.93167C7.2572 5.88682 7.30944 5.82308 7.34028 5.7485C7.37113 5.67393 7.3792 5.59187 7.36348 5.5127C7.34775 5.43353 7.30894 5.36081 7.25194 5.30373C7.19494 5.24665 7.12233 5.20778 7.04327 5.19203C6.96421 5.17628 6.88227 5.18437 6.8078 5.21526C6.73333 5.24615 6.66968 5.29846 6.6249 5.36557C6.58012 5.43269 6.55622 5.5116 6.55622 5.59232C6.55622 5.70056 6.59915 5.80437 6.67558 5.88091C6.75201 5.95745 6.85567 6.00045 6.96376 6.00045ZM4.92604 6.00045C5.00664 6.00045 5.08544 5.97651 5.15246 5.93167C5.21948 5.88682 5.27171 5.82308 5.30256 5.7485C5.33341 5.67393 5.34148 5.59187 5.32575 5.5127C5.31003 5.43353 5.27121 5.36081 5.21421 5.30373C5.15722 5.24665 5.0846 5.20778 5.00554 5.19203C4.92649 5.17628 4.84455 5.18437 4.77008 5.21526C4.69561 5.24615 4.63196 5.29846 4.58718 5.36557C4.54239 5.43269 4.51849 5.5116 4.51849 5.59232C4.51849 5.70056 4.56143 5.80437 4.63786 5.88091C4.71429 5.95745 4.81795 6.00045 4.92604 6.00045ZM7.77885 1.10288H7.37131V0.694752C7.37131 0.586509 7.32837 0.482699 7.25194 0.40616C7.17551 0.32962 7.07185 0.286621 6.96376 0.286621C6.85567 0.286621 6.75201 0.32962 6.67558 0.40616C6.59915 0.482699 6.55622 0.586509 6.55622 0.694752V1.10288H3.29586V0.694752C3.29586 0.586509 3.25292 0.482699 3.17649 0.40616C3.10006 0.32962 2.9964 0.286621 2.88831 0.286621C2.78022 0.286621 2.67656 0.32962 2.60013 0.40616C2.5237 0.482699 2.48077 0.586509 2.48077 0.694752V1.10288H2.07322C1.74896 1.10288 1.43798 1.23188 1.20869 1.4615C0.979399 1.69112 0.850586 2.00255 0.850586 2.32727V8.0411C0.850586 8.36583 0.979399 8.67726 1.20869 8.90688C1.43798 9.1365 1.74896 9.2655 2.07322 9.2655H7.77885C8.10312 9.2655 8.4141 9.1365 8.64339 8.90688C8.87267 8.67726 9.00149 8.36583 9.00149 8.0411V2.32727C9.00149 2.00255 8.87267 1.69112 8.64339 1.4615C8.4141 1.23188 8.10312 1.10288 7.77885 1.10288ZM8.1864 8.0411C8.1864 8.14935 8.14346 8.25316 8.06703 8.3297C7.9906 8.40623 7.88694 8.44923 7.77885 8.44923H2.07322C1.96513 8.44923 1.86147 8.40623 1.78504 8.3297C1.70861 8.25316 1.66568 8.14935 1.66568 8.0411V4.36793H8.1864V8.0411ZM8.1864 3.55167H1.66568V2.32727C1.66568 2.21903 1.70861 2.11522 1.78504 2.03868C1.86147 1.96214 1.96513 1.91914 2.07322 1.91914H2.48077V2.32727C2.48077 2.43552 2.5237 2.53933 2.60013 2.61587C2.67656 2.69241 2.78022 2.7354 2.88831 2.7354C2.9964 2.7354 3.10006 2.69241 3.17649 2.61587C3.25292 2.53933 3.29586 2.43552 3.29586 2.32727V1.91914H6.55622V2.32727C6.55622 2.43552 6.59915 2.53933 6.67558 2.61587C6.75201 2.69241 6.85567 2.7354 6.96376 2.7354C7.07185 2.7354 7.17551 2.69241 7.25194 2.61587C7.32837 2.53933 7.37131 2.43552 7.37131 2.32727V1.91914H7.77885C7.88694 1.91914 7.9906 1.96214 8.06703 2.03868C8.14346 2.11522 8.1864 2.21903 8.1864 2.32727V3.55167ZM2.88831 6.00045C2.96892 6.00045 3.04771 5.97651 3.11473 5.93167C3.18175 5.88682 3.23399 5.82308 3.26483 5.7485C3.29568 5.67393 3.30375 5.59187 3.28803 5.5127C3.2723 5.43353 3.23349 5.36081 3.17649 5.30373C3.11949 5.24665 3.04688 5.20778 2.96782 5.19203C2.88876 5.17628 2.80682 5.18437 2.73235 5.21526C2.65788 5.24615 2.59423 5.29846 2.54945 5.36557C2.50467 5.43269 2.48077 5.5116 2.48077 5.59232C2.48077 5.70056 2.5237 5.80437 2.60013 5.88091C2.67656 5.95745 2.78022 6.00045 2.88831 6.00045ZM2.88831 7.63297C2.96892 7.63297 3.04771 7.60904 3.11473 7.56419C3.18175 7.51934 3.23399 7.4556 3.26483 7.38103C3.29568 7.30645 3.30375 7.22439 3.28803 7.14522C3.2723 7.06605 3.23349 6.99333 3.17649 6.93625C3.11949 6.87917 3.04688 6.8403 2.96782 6.82455C2.88876 6.80881 2.80682 6.81689 2.73235 6.84778C2.65788 6.87867 2.59423 6.93098 2.54945 6.9981C2.50467 7.06521 2.48077 7.14412 2.48077 7.22484C2.48077 7.33309 2.5237 7.43689 2.60013 7.51343C2.67656 7.58997 2.78022 7.63297 2.88831 7.63297Z" fill="#FFA454"/>
</svg>
