<svg width="56" height="55" viewBox="0 0 56 55" fill="none" xmlns="http://www.w3.org/2000/svg">
<circle cx="28.3174" cy="27.5" r="27.5" fill="#151875"/>
<path d="M40.3403 20.9804C40.3255 19.8696 40.1176 18.7698 39.7258 17.7303C39.386 16.8534 38.8671 16.0571 38.2022 15.3922C37.5372 14.7272 36.7409 14.2083 35.8641 13.8685C34.8379 13.4833 33.7538 13.275 32.6579 13.2525C31.247 13.1895 30.7997 13.1719 27.2181 13.1719C23.6365 13.1719 23.1774 13.1719 21.7767 13.2525C20.6814 13.2752 19.5978 13.4835 18.5721 13.8685C17.6951 14.2081 16.8986 14.7269 16.2337 15.3919C15.5687 16.0568 15.0499 16.8533 14.7103 17.7303C14.3244 18.7557 14.1165 19.8395 14.0958 20.9349C14.0327 22.3473 14.0137 22.7947 14.0137 26.3763C14.0137 29.9579 14.0137 30.4155 14.0958 31.8176C14.1178 32.9147 14.3246 33.9971 14.7103 35.0252C15.0504 35.9019 15.5697 36.6981 16.2348 37.3627C16.9 38.0274 17.6966 38.5461 18.5735 38.8855C19.5964 39.2862 20.6802 39.5094 21.7782 39.5455C23.1906 39.6085 23.6379 39.6276 27.2195 39.6276C30.8011 39.6276 31.2602 39.6276 32.6609 39.5455C33.7567 39.5239 34.8409 39.3161 35.867 38.9309C36.7436 38.5908 37.5397 38.0717 38.2046 37.4068C38.8695 36.742 39.3886 35.9458 39.7287 35.0692C40.1145 34.0425 40.3213 32.9601 40.3433 31.8616C40.4063 30.4507 40.4254 30.0033 40.4254 26.4203C40.4225 22.8387 40.4225 22.384 40.3403 20.9804ZM27.2093 33.1493C23.4634 33.1493 20.4289 30.1148 20.4289 26.3689C20.4289 22.6231 23.4634 19.5885 27.2093 19.5885C29.0075 19.5885 30.7322 20.3029 32.0037 21.5745C33.2753 22.846 33.9897 24.5707 33.9897 26.3689C33.9897 28.1672 33.2753 29.8918 32.0037 31.1634C30.7322 32.435 29.0075 33.1493 27.2093 33.1493ZM34.2595 20.9188C33.3839 20.9188 32.6785 20.2119 32.6785 19.3377C32.6785 19.1302 32.7193 18.9247 32.7988 18.733C32.8782 18.5412 32.9946 18.367 33.1413 18.2203C33.2881 18.0735 33.4623 17.9571 33.654 17.8777C33.8458 17.7983 34.0513 17.7574 34.2588 17.7574C34.4663 17.7574 34.6718 17.7983 34.8636 17.8777C35.0553 17.9571 35.2295 18.0735 35.3763 18.2203C35.523 18.367 35.6394 18.5412 35.7188 18.733C35.7983 18.9247 35.8391 19.1302 35.8391 19.3377C35.8391 20.2119 35.1322 20.9188 34.2595 20.9188Z" fill="white"/>
<path d="M27.2091 30.7727C29.6416 30.7727 31.6135 28.8008 31.6135 26.3683C31.6135 23.9358 29.6416 21.9639 27.2091 21.9639C24.7766 21.9639 22.8047 23.9358 22.8047 26.3683C22.8047 28.8008 24.7766 30.7727 27.2091 30.7727Z" fill="white"/>
</svg>
