<svg width="49" height="65" viewBox="0 0 49 65" fill="none" xmlns="http://www.w3.org/2000/svg">
<path d="M7.94422 36.5386L0.103516 58.7717L7.99202 58.6949L17.7206 36.5386H7.94422Z" fill="#80AAFF"/>
<path d="M17.7199 36.5386L11.5977 59.9337L17.7636 65.0002L24.4989 45.2936V36.5386H17.7199Z" fill="#80AAFF"/>
<path d="M15.5913 36.5386L7.99219 58.6949L10.0664 58.6748L11.5986 59.9337L19.6226 36.5386H15.5913Z" fill="#EAF1FF"/>
<path d="M41.0557 36.5386L48.8964 58.7717L41.0079 58.6949L31.2793 36.5386H41.0557Z" fill="#6680FF"/>
<path d="M31.279 36.5386L37.4012 59.9337L31.2353 65.0002L24.5 45.2936V36.5386H31.279Z" fill="#6680FF"/>
<path d="M33.4083 36.5386L41.0074 58.6949L38.9331 58.6748L37.401 59.9337L29.377 36.5386H33.4083Z" fill="#B3CCFF"/>
<path d="M24.4994 1.90625L23.1436 23.0483L24.4994 43.3854C35.9536 43.3854 45.239 34.1 45.239 22.6459C45.239 11.1917 35.9536 1.90625 24.4994 1.90625V1.90625Z" fill="#EAF1FF"/>
<path d="M3.75977 22.6459C3.75977 34.1 13.0452 43.3854 24.4994 43.3854V1.90625C13.0452 1.90625 3.75977 11.1917 3.75977 22.6459V22.6459Z" fill="#F9F9F9"/>
<path d="M47.1457 22.6462C47.1457 10.159 36.9865 0 24.4994 0L23.1436 1.35585L24.4994 3.8132C34.8839 3.8132 43.3324 12.2616 43.3324 22.6462C43.3324 33.0307 34.8839 41.4791 24.4994 41.4791L23.1436 43.3857L24.4994 45.2923C36.9865 45.2923 47.1457 35.1333 47.1457 22.6462V22.6462Z" fill="#FDAE02"/>
<path d="M24.4996 41.4791C14.1151 41.4791 5.66672 33.0307 5.66672 22.6462C5.66672 12.2616 14.1151 3.8132 24.4996 3.8132V0C12.0125 0 1.85352 10.159 1.85352 22.6462C1.85352 35.1333 12.0125 45.2923 24.4996 45.2923V41.4791Z" fill="#FDCB02"/>
<path d="M35.8966 15.0945L29.9602 17.0356L24.4993 12.416L23.1436 21.6924L24.4993 31.2677H35.8966V15.0945Z" fill="#FD9002"/>
<path d="M24.4997 12.416L19.0389 17.0356L13.1025 15.0945V31.2677H24.4997V12.416Z" fill="#FDAE02"/>
</svg>
