<svg width="65" height="65" viewBox="0 0 65 65" fill="none" xmlns="http://www.w3.org/2000/svg">
<path d="M61.2561 24.0855L62.2284 22.3315C62.4872 21.8644 62.3185 21.276 61.8514 21.0172C61.4625 20.8016 60.9905 20.8834 60.6936 21.1858C56.4562 8.6056 44.6238 0.00292969 31.1635 0.00292969C22.8394 0.00292969 15.0135 3.24445 9.12758 9.13051C3.24152 15.0166 0 22.8423 0 31.1664C0 38.2513 2.31725 44.9278 6.70102 50.474C10.9528 55.8532 16.9363 59.7302 23.5494 61.3911C24.9691 61.7476 26.4398 61.9684 28.0457 62.066C28.0657 62.0672 28.0856 62.0678 28.1053 62.0678C28.6125 62.0678 29.0382 61.6727 29.0694 61.1597C29.1017 60.6266 28.6961 60.1685 28.163 60.136C26.6779 60.0458 25.3228 59.8429 24.0204 59.5157C11.0161 56.2496 1.93362 44.592 1.93362 31.1664C1.93362 15.0491 15.0461 1.93655 31.1635 1.93655C43.7494 1.93655 54.818 9.95449 58.824 21.693C58.4289 21.6234 58.0163 21.8054 57.8109 22.1757C57.5521 22.6426 57.7208 23.2312 58.1877 23.4899L59.9146 24.4472C59.966 24.4779 60.3008 24.6701 60.7052 24.5408C61.0583 24.4283 61.2216 24.1483 61.2561 24.0855V24.0855Z" fill="#D3CDBF"/>
<path d="M47.6088 10.0999L10.2256 47.4832C9.84799 47.8609 9.84799 48.4729 10.2256 48.8505C10.4143 49.0392 10.6618 49.1336 10.9092 49.1336C11.1565 49.1336 11.404 49.0392 11.5928 48.8505L48.976 11.4672C49.3536 11.0895 49.3536 10.4775 48.976 10.0999C48.5985 9.72257 47.9863 9.72257 47.6088 10.0999V10.0999Z" fill="#D3CDBF"/>
<path d="M12.3726 16.4346C8.40922 16.4346 7.06252 21.5935 9.15237 21.5935C9.68605 21.5935 10.1192 21.161 10.1192 20.6267C10.1192 19.3841 11.1301 18.3733 12.3725 18.3733C14.4453 18.3733 15.4188 20.9577 13.8525 22.326L8.51364 26.9911C7.84306 27.5771 8.25891 28.6858 9.1498 28.6858H15.5952C16.1291 28.6858 16.562 28.2481 16.562 27.714C16.562 27.1799 16.1291 26.7472 15.5952 26.7472H11.7349L15.1279 23.7861C18.0318 21.2517 16.2406 16.4346 12.3726 16.4346V16.4346Z" fill="#46525E"/>
<path d="M26.2934 24.1689H24.6869L24.6819 17.4029C24.6814 16.8692 24.2487 16.437 23.7151 16.437C23.1814 16.437 22.7483 16.8696 22.7483 17.4038V24.1689H19.2802C19.3002 24.1114 20.8795 19.5764 20.8951 19.5177C21.2377 18.2134 19.4599 17.7484 19.0636 18.8906L17.0034 24.8236C16.7855 25.4514 17.2524 26.1076 17.9167 26.1076H22.748C22.7477 27.763 22.665 28.0354 23.0324 28.4025C23.6406 29.0111 24.6868 28.575 24.6868 27.7165V26.1077H26.2932C26.8273 26.1077 27.26 25.6749 27.26 25.1409C27.2602 24.5872 26.8148 24.1689 26.2934 24.1689V24.1689Z" fill="#46525E"/>
<path d="M41.9992 32.3572C41.8232 32.0725 41.5124 31.8994 41.1778 31.8994H35.2568C34.7234 31.8994 34.291 32.3318 34.291 32.8652C34.291 33.3986 34.7234 33.831 35.2568 33.831H39.6162L35.1624 42.7533C34.9242 43.2306 35.118 43.8105 35.5952 44.0487C35.7338 44.118 35.8808 44.1507 36.0257 44.1507C36.3802 44.1507 36.7216 43.9548 36.8906 43.6161L42.0418 33.2966C42.1914 32.9971 42.1753 32.6418 41.9992 32.3572V32.3572Z" fill="#46525E"/>
<path d="M56.4998 27.325C54.8349 27.6277 53.6257 29.0775 53.6257 30.7696V33.9483C53.6257 35.6409 54.8361 37.0912 56.5013 37.3939L56.8878 37.4642C55.1262 46.9206 47.8706 54.4687 38.5699 56.658C38.3332 54.9228 36.8511 53.6291 35.0998 53.6291H30.9009C29.1497 53.6291 27.6677 54.9224 27.4312 56.6575C26.7431 61.7036 30.6239 65.2264 34.8462 64.9848C51.118 64.054 64.1367 50.9991 64.9901 34.6902C65.2222 30.2527 61.3463 26.4438 56.4998 27.325Z" fill="#6C7A88"/>
<path d="M34.8463 64.9845C51.1181 64.0537 64.1367 50.9988 64.9901 34.6899C65.061 33.3346 64.7471 32.0388 64.141 30.9165C62.4901 31.286 61.2208 32.7166 61.1282 34.488C60.3765 48.8516 48.9828 60.3025 34.6255 61.1238C32.8561 61.2249 31.4338 62.501 31.0703 64.1505C32.2051 64.7587 33.5082 65.0611 34.8463 64.9845V64.9845Z" fill="#596775"/>
</svg>
