<svg width="65" height="43" viewBox="0 0 65 43" fill="none" xmlns="http://www.w3.org/2000/svg">
<path d="M15.917 25.5374V36.1667H53.2749C54.3422 36.1667 55.2075 35.3014 55.2075 34.2341C55.2075 33.2958 55.2075 26.4739 55.2075 25.5374L35.5622 22.9604L15.917 25.5374Z" fill="#8B9BA9"/>
<path d="M51.3422 25.022V32.3015H15.917V36.1667H53.2749C54.3422 36.1667 55.2075 35.3014 55.2075 34.2341C55.2075 33.3448 55.2075 26.4096 55.2075 25.5373L51.3422 25.022Z" fill="#6C7A88"/>
<path d="M56.9477 0.0693359H21.716C20.6487 0.0693359 19.7834 0.934628 19.7834 2.00194V8.02459H6.89481C5.08692 8.02459 3.52048 9.27795 3.12378 11.0418L1.66105 17.5464C1.28536 19.2172 1.0957 20.9246 1.0957 22.6372V36.1666H19.7834C19.7834 35.8521 19.7834 31.0721 19.7834 25.5372H56.9478C58.0151 25.5372 58.8804 24.6719 58.8804 23.6046V2.00194C58.8803 0.934499 58.0151 0.0693359 56.9477 0.0693359V0.0693359Z" fill="#FF7E40"/>
<path d="M64.0343 17.2376H58.8804V13.7696H61.4573C61.9911 13.7696 62.4236 13.3369 62.4236 12.8033C62.4236 12.2696 61.9911 11.837 61.4573 11.837H58.8804V8.36898H62.7457C63.2795 8.36898 63.712 7.93633 63.712 7.40268C63.712 6.86902 63.2795 6.43637 62.7457 6.43637H58.8804V2.96825H64.0343C64.568 2.96825 65.0006 2.5356 65.0006 2.00194C65.0006 1.46829 64.568 1.03564 64.0343 1.03564H58.6197C58.2854 0.458563 57.6627 0.0693359 56.9478 0.0693359H55.0152V21.6721H19.7834C19.7834 14.8736 19.7834 8.20806 19.7834 8.02446H15.9182V25.5374H13.0192C10.202 25.5374 7.63925 26.6411 5.73525 28.4363H1.0957V36.1667H19.7834C19.7834 35.9045 19.7834 31.1026 19.7834 25.5374H31.6952H56.9478C57.6627 25.5374 58.2854 25.1481 58.6197 24.5711H62.7457C63.2795 24.5711 63.712 24.1384 63.712 23.6048C63.712 23.0711 63.2795 22.6384 62.7457 22.6384H58.8804V19.1703H64.0343C64.568 19.1703 65.0006 18.7377 65.0006 18.204C65.0006 17.6704 64.568 17.2376 64.0343 17.2376V17.2376Z" fill="#FF6344"/>
<path d="M0.966303 36.1665H8.03913V32.3013H0.966303C0.432646 32.3013 0 32.7339 0 33.2676V35.2002C0 35.734 0.432646 36.1665 0.966303 36.1665Z" fill="#8B9BA9"/>
<path d="M15.9174 11.8896H6.66357L4.82617 20.0603H15.9174V11.8896Z" fill="#9DC6FB"/>
<path d="M12.2827 16.1951H5.69533L4.82617 20.0603H15.9174V11.8896H12.2827V16.1951Z" fill="#80B4FB"/>
<path d="M45.8667 42.9306C49.6024 42.9306 52.6308 39.9022 52.6308 36.1665C52.6308 32.4307 49.6024 29.4023 45.8667 29.4023C42.1309 29.4023 39.1025 32.4307 39.1025 36.1665C39.1025 39.9022 42.1309 42.9306 45.8667 42.9306Z" fill="#4D5967"/>
<path d="M47.2504 29.5449C46.4576 31.0097 46.6793 32.8784 47.9174 34.1164L43.8177 38.2162C42.5797 36.978 40.711 36.7561 39.2461 37.5491C39.8862 40.6177 42.6117 42.9304 45.8676 42.9304C49.5974 42.9304 52.6317 39.8961 52.6317 36.1663C52.6316 32.9104 50.319 30.185 47.2504 29.5449V29.5449Z" fill="#35404A"/>
<path d="M45.8667 39.0654C47.4677 39.0654 48.7656 37.7675 48.7656 36.1665C48.7656 34.5655 47.4677 33.2676 45.8667 33.2676C44.2657 33.2676 42.9678 34.5655 42.9678 36.1665C42.9678 37.7675 44.2657 39.0654 45.8667 39.0654Z" fill="#FFF9EB"/>
<path d="M13.019 42.9306C16.7547 42.9306 19.7831 39.9022 19.7831 36.1665C19.7831 32.4307 16.7547 29.4023 13.019 29.4023C9.28329 29.4023 6.25488 32.4307 6.25488 36.1665C6.25488 39.9022 9.28329 42.9306 13.019 42.9306Z" fill="#4D5967"/>
<path d="M14.4018 29.5449C13.6089 31.0097 13.8306 32.8784 15.0688 34.1164L10.9691 38.2162C9.73108 36.978 7.86238 36.7561 6.39746 37.5491C7.03754 40.6177 9.76303 42.9304 13.019 42.9304C16.7488 42.9304 19.7831 39.8961 19.7831 36.1663C19.7831 32.9104 17.4705 30.185 14.4018 29.5449V29.5449Z" fill="#35404A"/>
<path d="M13.019 39.0654C14.6201 39.0654 15.9179 37.7675 15.9179 36.1665C15.9179 34.5655 14.6201 33.2676 13.019 33.2676C11.418 33.2676 10.1201 34.5655 10.1201 36.1665C10.1201 37.7675 11.418 39.0654 13.019 39.0654Z" fill="#FFF9EB"/>
<path d="M29.5611 10.8715V11.8379H30.785C31.3186 11.8379 31.751 12.2702 31.751 12.804C31.751 13.3378 31.3186 13.7703 30.785 13.7703H29.5611V15.7027C29.5611 16.2365 29.1285 16.669 28.595 16.669C28.0614 16.669 27.6289 16.2366 27.6289 15.7027V9.9055C27.6289 9.37184 28.0614 8.93945 28.595 8.93945H31.5579C32.0916 8.93945 32.5239 9.37184 32.5239 9.9055C32.5239 10.4393 32.0916 10.8718 31.5579 10.8718H29.5611V10.8715Z" fill="#FFF9EB"/>
<path d="M38.7699 15.0216C39.1453 15.4003 39.1429 16.0122 38.7641 16.3879C38.5755 16.5746 38.3297 16.668 38.0837 16.668C37.835 16.668 37.5865 16.5727 37.3976 16.3821L35.765 14.7357H35.2496V15.7017C35.2496 16.2355 34.817 16.668 34.2834 16.668C33.7499 16.668 33.3174 16.2356 33.3174 15.7017V9.90452C33.3174 9.37087 33.7499 8.93848 34.2834 8.93848H36.1677C37.757 8.93848 39.05 10.2389 39.05 11.837C39.05 12.7799 38.5997 13.6187 37.9041 14.1485L38.7699 15.0216ZM37.1175 11.837C37.1175 11.3041 36.6913 10.8707 36.1677 10.8707H35.2496V12.803H36.1677C36.6913 12.803 37.1175 12.3696 37.1175 11.837Z" fill="#FFF9EB"/>
<path d="M45.0386 15.7017C45.0386 16.2355 44.6062 16.668 44.0725 16.668H41.1096C40.5761 16.668 40.1436 16.2356 40.1436 15.7017V9.90452C40.1436 9.37087 40.5761 8.93848 41.1096 8.93848H44.0725C44.6062 8.93848 45.0386 9.37087 45.0386 9.90452C45.0386 10.4383 44.6062 10.8708 44.0725 10.8708H42.0758V11.8371H43.2996C43.8333 11.8371 44.2657 12.2695 44.2657 12.8033C44.2657 13.3371 43.8333 13.7696 43.2996 13.7696H42.0758V14.7358H44.0725C44.6062 14.7357 45.0386 15.168 45.0386 15.7017V15.7017Z" fill="#FFF9EB"/>
<path d="M51.0347 15.7017C51.0347 16.2355 50.6023 16.668 50.0686 16.668H47.1057C46.5722 16.668 46.1396 16.2356 46.1396 15.7017V9.90452C46.1396 9.37087 46.5722 8.93848 47.1057 8.93848H50.0686C50.6023 8.93848 51.0347 9.37087 51.0347 9.90452C51.0347 10.4383 50.6023 10.8708 50.0686 10.8708H48.0719V11.8371H49.2957C49.8294 11.8371 50.2618 12.2695 50.2618 12.8033C50.2618 13.3371 49.8294 13.7696 49.2957 13.7696H48.0719V14.7358H50.0686C50.6023 14.7357 51.0347 15.168 51.0347 15.7017V15.7017Z" fill="#FFF9EB"/>
</svg>
