<svg width="56" height="55" viewBox="0 0 56 55" fill="none" xmlns="http://www.w3.org/2000/svg">
<circle cx="28.1357" cy="27.5" r="27.5" fill="#151875"/>
<g clip-path="url(#clip0_329_4106)">
<path d="M44.1127 16.0404C42.888 16.5831 41.5724 16.9497 40.1893 17.1155C41.6164 16.2616 42.6841 14.9176 43.1931 13.3344C41.8523 14.1308 40.3849 14.6913 38.8547 14.9917C37.8256 13.893 36.4626 13.1647 34.9773 12.92C33.4919 12.6753 31.9674 12.9278 30.6402 13.6384C29.3131 14.3489 28.2577 15.4777 27.6378 16.8496C27.018 18.2214 26.8684 19.7595 27.2123 21.2251C24.4956 21.0887 21.8379 20.3825 19.4117 19.1525C16.9855 17.9225 14.8451 16.1961 13.1293 14.0853C12.5427 15.0973 12.2053 16.2707 12.2053 17.5203C12.2047 18.6452 12.4817 19.7529 13.0118 20.7451C13.542 21.7373 14.3088 22.5832 15.2443 23.208C14.1594 23.1735 13.0984 22.8803 12.1496 22.3529V22.4409C12.1495 24.0187 12.6953 25.5479 13.6943 26.7691C14.6933 27.9902 16.0841 28.8282 17.6305 29.1407C16.6241 29.413 15.5689 29.4532 14.5447 29.258C14.981 30.6156 15.8309 31.8027 16.9755 32.6532C18.12 33.5037 19.5019 33.9751 20.9276 34.0012C18.5074 35.9011 15.5184 36.9317 12.4415 36.9272C11.8964 36.9273 11.3519 36.8955 10.8105 36.8319C13.9338 38.84 17.5694 39.9057 21.2825 39.9016C33.8519 39.9016 40.7232 29.4912 40.7232 20.4624C40.7232 20.1691 40.7159 19.8728 40.7027 19.5795C42.0392 18.6129 43.1929 17.416 44.1097 16.0448L44.1127 16.0404Z" fill="white"/>
</g>
<defs>
<clipPath id="clip0_329_4106">
<rect width="35.2" height="35.2" fill="white" transform="translate(9.43652 8.7998)"/>
</clipPath>
</defs>
</svg>
